<?xml version="1.0" standalone="no"?>
<!DOCTYPE svg PUBLIC "-//W3C//DTD SVG 20010904//EN"
 "http://www.w3.org/TR/2001/REC-SVG-20010904/DTD/svg10.dtd">
<svg version="1.0" xmlns="http://www.w3.org/2000/svg"
 width="585.000000pt" height="585.000000pt" viewBox="0 0 585.000000 585.000000"
 preserveAspectRatio="xMidYMid meet">

<g transform="translate(0.000000,585.000000) scale(0.100000,-0.100000)"
fill="#000000" stroke="none">
<path d="M2794 4355 c-428 -93 -690 -525 -573 -945 19 -72 95 -230 110 -230 3
0 11 6 17 13 9 10 2 32 -28 88 -158 302 -85 668 178 884 132 109 273 159 452
159 79 0 135 -6 180 -18 440 -121 660 -609 456 -1014 -31 -62 -34 -72 -20 -83
19 -16 22 -12 70 87 38 78 74 228 74 310 1 260 -145 521 -364 653 -164 99
-373 135 -552 96z"/>
<path d="M2686 4085 c-13 -13 -52 -38 -88 -55 -36 -17 -76 -42 -89 -56 l-24
-26 -3 -372 c-3 -428 -10 -398 93 -406 l63 -5 -69 -117 c-65 -112 -67 -118
-48 -128 16 -9 22 -6 37 20 9 17 43 76 75 131 l58 99 256 -2 256 -3 67 -119
c79 -136 82 -141 104 -129 13 7 5 27 -53 128 l-68 120 62 5 c102 8 95 -21 95
400 l0 368 -27 33 c-15 17 -55 44 -88 59 -34 15 -74 40 -88 54 l-26 26 -236 0
-236 0 -23 -25z m498 -40 c3 -8 39 -30 79 -49 41 -18 82 -44 91 -57 14 -21 16
-65 16 -371 l0 -348 -425 0 -425 0 0 343 c0 251 4 349 13 367 7 16 39 38 84
60 40 20 81 43 90 53 15 15 43 17 244 17 193 0 228 -2 233 -15z"/>
<path d="M2577 3862 c-14 -15 -17 -41 -17 -135 0 -147 0 -147 120 -147 119 0
123 6 118 158 -2 73 -7 114 -17 125 -21 26 -181 24 -204 -1z m173 -132 l0
-110 -70 0 -70 0 0 110 0 110 70 0 70 0 0 -110z"/>
<path d="M2856 3864 c-13 -12 -16 -40 -16 -138 0 -81 4 -126 12 -134 7 -7 43
-12 93 -12 50 0 86 5 93 12 8 8 12 53 12 134 0 152 -2 154 -105 154 -54 0 -78
-4 -89 -16z m152 -137 l3 -108 -63 3 -63 3 -3 94 c-1 52 0 101 2 108 4 10 22
13 63 11 l58 -3 3 -108z"/>
<path d="M3118 3869 c-16 -9 -18 -27 -18 -137 0 -86 4 -132 12 -140 8 -8 46
-12 105 -12 81 0 94 2 103 19 5 11 10 71 10 135 0 145 -1 146 -113 146 -45 0
-90 -5 -99 -11z m167 -139 l0 -105 -72 -3 -73 -3 0 111 0 111 73 -3 72 -3 0
-105z"/>
<path d="M2576 3431 c-25 -27 -17 -70 17 -95 26 -19 30 -19 55 -5 62 34 47
119 -22 119 -20 0 -40 -8 -50 -19z m68 -36 c3 -9 -1 -18 -10 -22 -19 -7 -39
11 -30 26 10 16 33 13 40 -4z"/>
<path d="M3216 3428 c-9 -12 -16 -32 -16 -44 0 -23 42 -64 65 -64 26 0 65 41
65 69 0 57 -82 85 -114 39z m72 -35 c5 -17 -26 -29 -40 -15 -6 6 -7 15 -3 22
9 14 37 9 43 -7z"/>
<path d="M4567 2582 c-32 -35 -16 -95 28 -106 68 -17 110 77 51 116 -20 14
-63 8 -79 -10z"/>
<path d="M2107 2578 c-48 -17 -50 -94 -2 -116 53 -24 108 29 84 82 -15 32 -47
45 -82 34z"/>
<path d="M261 2561 c-20 -20 -21 -30 -21 -326 0 -292 1 -306 20 -325 26 -26
62 -25 86 1 17 19 19 42 22 285 l3 264 88 0 c135 0 193 -27 232 -106 42 -88
25 -221 -38 -286 -45 -47 -26 -111 32 -110 37 0 87 52 122 126 24 53 28 73 28
156 0 81 -4 103 -26 150 -37 80 -72 115 -147 152 -65 32 -69 33 -223 36 -148
4 -158 3 -178 -17z"/>
<path d="M1257 2568 c-9 -7 -80 -147 -158 -311 -150 -316 -156 -335 -104 -359
43 -19 72 3 112 87 l35 75 177 0 c193 0 221 7 221 55 0 27 -182 419 -207 447
-19 21 -52 23 -76 6z m42 -396 c-50 -1 -94 -1 -96 2 -3 2 16 49 42 103 l47 98
49 -100 50 -100 -92 -3z"/>
<path d="M1667 2562 c-22 -24 -21 -65 1 -85 14 -13 39 -17 105 -17 l87 0 0
-265 c0 -252 1 -266 20 -285 11 -11 29 -20 40 -20 11 0 29 9 40 20 19 19 20
33 20 328 0 287 -1 310 -18 325 -15 14 -42 17 -149 17 -113 0 -132 -2 -146
-18z"/>
<path d="M2518 2563 c-26 -30 -288 -591 -288 -618 0 -32 41 -60 75 -51 19 5
35 26 65 86 l40 80 180 0 c167 0 181 1 200 20 11 11 20 28 20 38 0 26 -197
435 -217 450 -24 17 -57 15 -75 -5z m94 -293 l47 -100 -99 0 -98 0 46 100 c25
55 49 100 52 100 3 0 26 -45 52 -100z"/>
<path d="M3112 2564 c-22 -15 -22 -16 -22 -325 0 -296 1 -310 20 -329 24 -24
48 -25 78 -4 22 15 22 17 22 285 l0 269 148 0 c155 0 174 5 186 46 4 13 -1 30
-15 47 l-20 27 -188 0 c-153 0 -191 -3 -209 -16z"/>
<path d="M3747 2562 c-15 -16 -17 -54 -17 -330 0 -369 -10 -342 132 -342 75 0
91 3 108 20 24 24 25 48 4 78 -12 18 -25 22 -70 22 l-54 0 0 265 c0 252 -1
266 -20 285 -25 25 -62 26 -83 2z"/>
<path d="M5147 2562 c-22 -24 -21 -65 1 -85 16 -14 43 -17 165 -17 81 0 147
-3 147 -8 0 -4 -79 -113 -175 -242 -184 -248 -197 -274 -153 -304 18 -13 51
-16 155 -16 120 0 135 2 153 20 11 11 20 31 20 43 0 40 -29 57 -98 57 -34 0
-62 3 -62 8 0 4 79 113 175 242 245 327 247 320 -87 320 -205 0 -226 -2 -241
-18z"/>
<path d="M4405 2529 c-32 -12 -92 -80 -122 -139 -25 -49 -28 -65 -28 -155 0
-95 2 -103 34 -163 70 -128 181 -195 326 -196 66 0 90 4 137 26 155 72 246
235 217 392 -17 95 -73 185 -143 232 -42 27 -97 -15 -87 -66 2 -8 22 -35 45
-61 70 -78 85 -173 42 -265 -94 -201 -394 -170 -446 47 -21 88 0 159 71 236
43 47 46 58 24 90 -17 24 -43 33 -70 22z"/>
<path d="M3313 2272 c-20 -13 -31 -55 -21 -78 23 -51 93 -49 117 3 11 25 1 59
-23 75 -14 10 -58 10 -73 0z"/>
<path d="M462 2004 c-28 -19 -30 -74 -4 -97 25 -23 68 -21 92 3 27 27 25 56
-5 85 -28 29 -51 31 -83 9z"/>
<path d="M1540 2013 c-41 -15 -54 -78 -22 -106 38 -34 95 -15 107 35 5 21 1
33 -19 52 -25 26 -37 29 -66 19z"/>
<path d="M2797 2009 c-39 -23 -41 -86 -3 -111 38 -26 96 7 96 53 0 49 -53 82
-93 58z"/>
<path d="M4084 1994 c-20 -19 -24 -31 -19 -52 17 -74 125 -67 125 9 0 30 -9
43 -37 58 -31 16 -41 14 -69 -15z"/>
<path d="M5573 2010 c-29 -12 -45 -44 -37 -75 17 -68 124 -55 124 16 0 30 -9
43 -37 58 -25 13 -21 12 -50 1z"/>
</g>
</svg>
